# AST/ASF file generated using VICON BodyLanguage
# -----------------------------------------------
:version 1.10
:name VICON
:units
  mass 1.0
  length 0.45
  angle deg
:documentation
   .ast/.asf automatically generated from VICON data using
   VICON BodyBuilder and BodyLanguage model FoxedUp or BRILLIANT.MOD
:root
   order TX TY TZ RX RY RZ
   axis XYZ
   position 0 0 0  
   orientation 0 0 0 
:bonedata
  begin
     id 1 
     name lhipjoint
     direction 0.621036 -0.695554 0.361275 
     length 2.46325 
     axis 0 0 0  XYZ
  end
  begin
     id 2 
     name lfemur
     direction 0.34202 -0.939693 0  
     length 6.54784  
     axis 0 0 20  XYZ
    dof rx ry rz
    limits (-160.0 20.0)
           (-70.0 70.0)
           (-60.0 70.0)
  end
  begin
     id 3 
     name ltibia
     direction 0.34202 -0.939693 0   
     length 7.84737   
     axis 0 0 20   XYZ
    dof rx
    limits (-10.0 170.0)
  end
  begin
     id 4 
     name lfoot
     direction 0.0790693 -0.217241 0.97291   
     length 2.59747   
     axis -90 7.62852e-016 20   XYZ
    dof rx rz
    limits (-45.0 90.0)
           (-70.0 20.0)
  end
  begin
     id 5 
     name ltoes
     direction 1.53572e-011 -4.21898e-011 1   
     length 1.29919   
     axis -90 7.62852e-016 20   XYZ
    dof rx
    limits (-90.0 20.0)
  end
  begin
     id 6 
     name rhipjoint
     direction -0.602353 -0.708375 0.367935   
     length 2.41867  
     axis 0 0 0  XYZ 
  end
  begin
     id 7 
     name rfemur
     direction -0.34202 -0.939693 0   
     length 6.92065   
     axis 0 0 -20   XYZ
    dof rx ry rz
    limits (-160.0 20.0)
           (-70.0 70.0)
           (-70.0 60.0)
  end
  begin
     id 8 
     name rtibia
     direction -0.34202 -0.939693 0   
     length 7.88883   
     axis 0 0 -20   XYZ
    dof rx
    limits (-10.0 170.0)
 end
 begin
     id 9 
     name rfoot
     direction -0.0768692 -0.211196 0.974416   
     length 2.43714  
     axis -90 -7.62852e-016 -20   XYZ
    dof rx rz
    limits (-45.0 90.0)
           (-20.0 70.0)
  end
  begin
     id 10 
     name rtoes
     direction -1.53575e-011 -4.21933e-011 1   
     length 1.22113   
     axis -90 -7.62852e-016 -20   XYZ
    dof rx
    limits (-90.0 20.0)
  end
  begin
     id 11 
     name lowerback
     direction 0.0197937 0.98943 -0.143655   
     length 2.16931   
     axis 0 0 0   XYZ
    dof rx ry rz
    limits (-20.0 45.0)
           (-30.0 30.0)
           (-30.0 30.0)
  end
  begin
     id 12 
     name upperback
     direction -0.00183968 0.999975 0.00684288   
     length 2.17221   
     axis 0 0 0   XYZ
    dof rx ry rz
    limits (-20.0 45.0)
           (-30.0 30.0)
           (-30.0 30.0)
  end
  begin
     id 13 
     name thorax
     direction -0.00950244 0.997208 0.0740685   
     length 2.22549   
     axis 0 0 0   XYZ
    dof rx ry rz
    limits (-20.0 45.0)
           (-30.0 30.0)
           (-30.0 30.0)
  end
  begin
     id 14 
     name lowerneck
     direction 0.0218238 0.996215 0.0841425   
     length 1.77269   
     axis 0 0 0   XYZ
    dof rx ry rz
    limits (-20.0 45.0)
           (-30.0 30.0)
           (-30.0 30.0)
  end
  begin
     id 15 
     name upperneck
     direction -0.00430652 0.994214 -0.107332   
     length 1.76534   
     axis 0 0 0   XYZ
    dof rx ry rz
    limits (-20.0 45.0)
           (-30.0 30.0)
           (-30.0 30.0)
  end
  begin
     id 16
     name head
     direction -0.00328946 0.998959 -0.0454998  
     length 1.82634  
     axis 0 0 0   XYZ
    dof rx ry rz
    limits (-20.0 45.0)
           (-30.0 30.0)
           (-30.0 30.0)
  end
  begin
     id 17 
     name lclavicle
     direction 0.970962 0.239191 0.00450212  
     length 3.84872  
     axis 0 0 0   XYZ
    dof ry rz
    limits (-20.0 10.0)
           (0.0 20.0)
  end
  begin
     id 18 
     name lhumerus
     direction 1 -4.48966e-011 5.74696e-028   
     length 5.22771   
     axis 180 -30 -90   XYZ
    dof rx ry rz
    limits (-60.0 90.0)
           (-90.0 90.0)
           (-90.0 90.0)
  end
  begin
     id 19
     name lradius
     direction 1 -4.4896e-011 4.25109e-027   
     length 3.45251   
     axis 180 -30 -90   XYZ
    dof rx
    limits (-10.0 170.0)
  end
  begin
     id 20
     name lwrist
     direction 1 -4.48971e-011 1.15382e-027   
     length 1.72626   
     axis -5.52449e-016 90 90   XYZ
    dof ry
    limits (-180.0 0.0)
 end
  begin
     id 21 
     name lhand
     direction 1 -4.49034e-011 2.30765e-027   
     length 0.552119   
     axis -1.47248e-015 90 90   XYZ
    dof rx rz
    limits (-90.0 90.0)
           (-45.0 45.0)
  end
  begin
     id 22 
     name lfingers
     direction 1 -4.48951e-011 4.61529e-027   
     length 0.445133   
     axis -2.94495e-015 90 90   XYZ
    dof rx
    limits (0.0 90.0)
  end
  begin
     id 23
     name lthumb
     direction 0.707107 -6.34991e-011 0.707107   
     length 0.639124   
     axis -90 45 2.85299e-015   XYZ
    dof rx rz
    limits (-45.0 45.0)
           (-45.0 45.0)
  end
  begin
     id 24 
     name rclavicle
     direction -0.97424 0.222511 -0.0366699   
     length 3.73439  
     axis 0 0 0   XYZ 
    dof ry rz
    limits (-10.0 20.0)
           (-20.0 0.0)
  end
  begin
     id 25 
     name rhumerus
     direction -1 -4.48956e-011 -4.97258e-028  
     length 5.2398   
     axis 180 30 90   XYZ
    dof rx ry rz
    limits (-90.0 60.0)
           (-90.0 90.0)
           (-90.0 90.0)
  end
  begin
     id 26 
     name rradius
     direction -1 -4.4897e-011 -1.72611e-027   
     length 3.48042   
     axis 180 30 90   XYZ
    dof rx
    limits (-10.0 170.0)
  end
  begin
     id 27 
     name rwrist
     direction -1 -4.48976e-011 1.15382e-027   
     length 1.74021   
     axis -5.52449e-016 -90 -90   XYZ
    dof ry
    limits (-180.0 0.0)
  end
  begin
     id 28
     name rhand
     direction -1 -4.48963e-011 2.30765e-027   
     length 0.618713   
     axis -1.47248e-015 -90 -90   XYZ
    dof rx rz
    limits (-90.0 90.0)
           (-45.0 45.0)
  end
  begin
     id 29
     name rfingers
     direction -1 -4.4888e-011 4.61529e-027   
     length 0.498823   
     axis -2.94495e-015 -90 -90   XYZ
    dof rx
    limits (0.0 90.0)
  end
  begin
     id 30
     name rthumb
     direction -0.707107 -6.34968e-011 0.707107   
     length 0.716213   
     axis -90 -45 -2.85299e-015   XYZ
    dof rx rz
    limits (-45.0 45.0)
           (-45.0 45.0)
  end
:hierarchy
  begin
    root lhipjoint rhipjoint lowerback
    lhipjoint lfemur
    lfemur ltibia
    ltibia lfoot
    lfoot ltoes
    rhipjoint rfemur
    rfemur rtibia
    rtibia rfoot
    rfoot rtoes
    lowerback upperback
    upperback thorax
    thorax lowerneck lclavicle rclavicle
    lowerneck upperneck
    upperneck head
    lclavicle lhumerus
    lhumerus lradius
    lradius lwrist
    lwrist lhand lthumb
    lhand lfingers
    rclavicle rhumerus
    rhumerus rradius
    rradius rwrist
    rwrist rhand rthumb
    rhand rfingers
  end

#!OML:ASF G:\JayActor3\Patient Classification 1\Patient 1\Session 5\male.ASF
:FULLY-SPECIFIED
:DEGREES
238
root 47.8545 17.4034 -4.32435 151.528 -86.3057 -152.518
lowerback 1.08797 -0.521709 1.34126
upperback 0.812551 -0.688598 -0.377772
thorax 0.201516 -0.339781 -1.13201
lowerneck -6.08715 0.232534 1.28422
upperneck 4.39733 0.0329017 2.61036
head 2.44261 0.11333 0.612424
rclavicle -2.15557e-015 -5.56597e-015
rhumerus -34.0387 -14.7873 -81.195
rradius 23.9332
rwrist 4.76772
rhand -18.9785 -6.37503
rfingers 7.12502
rthumb 7.32588 -36.2282
lclavicle -2.15557e-015 -5.56597e-015
lhumerus -34.46 10.8681 80.3596
lradius 23.3048
lwrist 15.2353
lhand -18.1055 12.9914
lfingers 7.12502
lthumb 8.16849 42.8135
rfemur -17.9986 1.59773 18.812
rtibia 52.136
rfoot 6.80889 -21.1327
rtoes 5.96376
lfemur 3.46059 11.1695 -17.9507
ltibia 19.8377
lfoot 7.9578 -4.68454
ltoes -38.774
239
root 47.8261 17.4022 -4.31405 152.443 -86.3021 -153.399
lowerback 1.07575 -0.554774 1.26796
upperback 0.831045 -0.733628 -0.399214
thorax 0.226572 -0.362323 -1.11269
lowerneck -6.08136 0.259671 1.298
upperneck 4.38909 0.0706904 2.57449
head 2.43837 0.13122 0.600001
rclavicle 7.90169e-015 -4.37326e-015
rhumerus -34.0069 -14.7496 -81.2266
rradius 23.9966
rwrist 4.69695
rhand -19.0054 -6.50112
rfingers 7.12502
rthumb 7.29993 -36.3552
lclavicle 7.90169e-015 -4.37326e-015
lhumerus -34.4707 10.8528 80.323
lradius 23.3582
lwrist 15.254
lhand -18.1521 12.9929
lfingers 7.12502
lthumb 8.12356 42.8168
rfemur -18.6829 1.61061 18.9309
rtibia 52.7515
rfoot 6.31433 -21.1498
rtoes 6.2306
lfemur 3.66845 11.269 -18.0541
ltibia 19.5865
lfoot 7.98265 -4.57836
ltoes -38.704
240
root 47.7963 17.4015 -4.30415 152.753 -86.3149 -153.663
lowerback 1.04464 -0.596512 1.2251
upperback 0.849909 -0.790149 -0.410958
thorax 0.262082 -0.390436 -1.10065
lowerneck -6.08459 0.283657 1.31247
upperneck 4.38492 0.103992 2.53698
head 2.43722 0.146962 0.586815
rclavicle 1.48592e-014 1.98785e-015
rhumerus -33.9894 -14.6961 -81.2561
rradius 24.0763
rwrist 4.61208
rhand -19.044 -6.63149
rfingers 7.12502
rthumb 7.26269 -36.4869
lclavicle 1.48592e-014 1.98785e-015
lhumerus -34.4702 10.8576 80.2847
lradius 23.3946
lwrist 15.2562
lhand -18.1939 12.9934
lfingers 7.12502
lthumb 8.08319 42.8188
rfemur -19.3251 1.6197 19.0817
rtibia 53.1796
rfoot 5.65163 -21.0733
rtoes 6.33781
lfemur 3.855 11.3381 -18.1347
ltibia 19.3529
lfoot 8.00276 -4.44705
ltoes -38.629
241
root 47.7652 17.4011 -4.29456 152.488 -86.3429 -153.349
lowerback 1.00742 -0.645234 1.21252
upperback 0.869562 -0.855801 -0.413633
thorax 0.301341 -0.422976 -1.09638
lowerneck -6.08949 0.29738 1.32496
upperneck 4.38441 0.123587 2.49989
head 2.43773 0.155919 0.573595
rclavicle 2.0686e-015 5.56597e-015
rhumerus -33.9869 -14.638 -81.2775
rradius 24.1657
rwrist 4.52604
rhand -19.0896 -6.76372
rfingers 7.12502
rthumb 7.21866 -36.6206
lclavicle 2.0686e-015 5.56597e-015
lhumerus -34.4664 10.8625 80.2532
lradius 23.4256
lwrist 15.2604
lhand -18.2236 12.9901
lfingers 7.12502
lthumb 8.05453 42.8167
rfemur -19.9165 1.63713 19.2606
rtibia 53.4148
rfoot 4.84645 -20.9285
rtoes 6.27308
lfemur 4.03026 11.3769 -18.1928
ltibia 19.1344
lfoot 8.01987 -4.29489
ltoes -38.5544
242
root 47.7328 17.401 -4.2851 151.781 -86.3932 -152.594
lowerback 0.973173 -0.701937 1.21772
upperback 0.888296 -0.931926 -0.410134
thorax 0.337552 -0.46071 -1.09572
lowerneck -6.0896 0.312081 1.33541
upperneck 4.37286 0.144859 2.46615
head 2.43367 0.1656 0.561785
rclavicle -4.57826e-015 -1.59028e-015
rhumerus -34.0026 -14.5635 -81.2924
rradius 24.2642
rwrist 4.4287
rhand -19.134 -6.89019
rfingers 7.12502
rthumb 7.17577 -36.7485
lclavicle -4.57826e-015 -1.59028e-015
lhumerus -34.4483 10.9123 80.2094
lradius 23.4187
lwrist 15.2217
lhand -18.2397 12.9749
lfingers 7.12502
lthumb 8.03902 42.802
rfemur -20.4531 1.66261 19.4501
rtibia 53.4611
rfoot 3.99954 -20.7458
rtoes 6.09721
lfemur 4.20371 11.3841 -18.2403
ltibia 18.9243
lfoot 8.03422 -4.12872
ltoes -38.4879
243
root 47.6995 17.4013 -4.27584 150.463 -86.4539 -151.231
lowerback 0.948198 -0.76555 1.25189
upperback 0.905712 -1.017 -0.395483
thorax 0.366676 -0.502853 -1.09976
lowerneck -6.08823 0.320248 1.34065
upperneck 4.35901 0.157927 2.43291
head 2.42863 0.171094 0.550697
rclavicle -8.38623e-015 -7.95139e-016
rhumerus -34.0288 -14.4823 -81.2957
rradius 24.3581
rwrist 4.33235
rhand -19.1779 -7.00592
rfingers 7.12502
rthumb 7.13347 -36.8657
lclavicle -8.38623e-015 -7.95139e-016
lhumerus -34.4268 10.9663 80.1736
lradius 23.4016
lwrist 15.1846
lhand -18.2459 12.9618
lfingers 7.12502
lthumb 8.03304 42.7891
rfemur -20.9367 1.70628 19.6636
rtibia 53.326
rfoot 3.08059 -20.5199
rtoes 5.71241
lfemur 4.38066 11.3623 -18.2615
ltibia 18.7166
lfoot 8.04963 -3.94779
ltoes -38.4153
244
root 47.665 17.4021 -4.26687 148.688 -86.5217 -149.414
lowerback 0.935011 -0.833723 1.30287
upperback 0.918409 -1.10793 -0.371384
thorax 0.384021 -0.54795 -1.10334
lowerneck -6.07226 0.326216 1.33749
upperneck 4.33466 0.169098 2.40444
head 2.41742 0.175421 0.542387
rclavicle -8.57259e-016 0
rhumerus -34.0728 -14.3892 -81.2861
rradius 24.4489
rwrist 4.23343
rhand -19.21 -7.11806
rfingers 7.12502
rthumb 7.10241 -36.9789
lclavicle -8.57259e-016 0
lhumerus -34.4111 11.0144 80.1497
lradius 23.3815
lwrist 15.1578
lhand -18.2514 12.9598
lfingers 7.12502
lthumb 8.02766 42.7873
rfemur -21.3721 1.77555 19.8885
rtibia 53.0242
rfoot 2.13265 -20.2494
rtoes 5.1015
lfemur 4.56872 11.3201 -18.2647
ltibia 18.499
lfoot 8.06968 -3.76467
ltoes -38.3592
245
root 47.6298 17.4036 -4.25847 146.439 -86.5891 -147.123
lowerback 0.934155 -0.904338 1.36784
upperback 0.927475 -1.2019 -0.337029
thorax 0.390514 -0.594614 -1.10403
lowerneck -6.05076 0.33226 1.33135
upperneck 4.29384 0.18113 2.37679
head 2.39969 0.179923 0.534777
rclavicle -5.3237e-015 -7.15625e-015
rhumerus -34.1226 -14.296 -81.263
rradius 24.5243
rwrist 4.13858
rhand -19.2302 -7.20714
rfingers 7.12502
rthumb 7.08297 -37.0686
lclavicle -5.3237e-015 -7.15625e-015
lhumerus -34.3903 11.0629 80.1373
lradius 23.3549
lwrist 15.1333
lhand -18.2517 12.9606
lfingers 7.12502
lthumb 8.02746 42.7882
rfemur -21.7694 1.87924 20.1261
rtibia 52.5691
rfoot 1.17945 -19.9439
rtoes 4.19504
lfemur 4.7692 11.2633 -18.2454
ltibia 18.2627
lfoot 8.10182 -3.57969
ltoes -38.3035
246
root 47.5935 17.406 -4.25061 143.991 -86.6587 -144.633
lowerback 0.940795 -0.975443 1.42841
upperback 0.930885 -1.29641 -0.296919
thorax 0.387136 -0.641688 -1.09614
lowerneck -6.01871 0.34106 1.31847
upperneck 4.24285 0.197532 2.35493
head 2.37662 0.186476 0.530251
rclavicle 1.35111e-014 -3.18055e-015
rhumerus -34.1855 -14.203 -81.2233
rradius 24.5871
rwrist 4.05102
rhand -19.2345 -7.27953
rfingers 7.12502
rthumb 7.07877 -37.1412
lclavicle 1.35111e-014 -3.18055e-015
lhumerus -34.369 11.1069 80.1369
lradius 23.3236
lwrist 15.1131
lhand -18.2476 12.9761
lfingers 7.12502
lthumb 8.03133 42.8035
rfemur -22.1364 2.01871 20.3524
rtibia 51.9766
rfoot 0.260562 -19.5957
rtoes 3.01795
lfemur 4.98878 11.1966 -18.223
ltibia 17.9924
lfoot 8.15164 -3.3982
ltoes -38.2469
247
root 47.5563 17.4093 -4.24351 141.365 -86.7255 -141.966
lowerback 0.958894 -1.0417 1.4845
upperback 0.930795 -1.38429 -0.253393
thorax 0.374086 -0.685579 -1.08199
lowerneck -5.9954 0.349796 1.30727
upperneck 4.19291 0.213191 2.33688
head 2.35556 0.192871 0.526661
rclavicle 2.89107e-014 0
rhumerus -34.2619 -14.1248 -81.1656
rradius 24.6385
rwrist 3.97173
rhand -19.2274 -7.32712
rfingers 7.12502
rthumb 7.08562 -37.1885
lclavicle 2.89107e-014 0
lhumerus -34.3404 11.1387 80.1494
lradius 23.2888
lwrist 15.0945
lhand -18.2298 12.979
lfingers 7.12502
lthumb 8.04852 42.8057
rfemur -22.476 2.20364 20.5661
rtibia 51.2596
rfoot -0.580898 -19.2203
rtoes 1.69143
lfemur 5.23556 11.1283 -18.1937
ltibia 17.6765
lfoot 8.22759 -3.22724
ltoes -38.1866
248
root 47.5184 17.4135 -4.23729 138.661 -86.7887 -139.218
lowerback 0.982833 -1.10132 1.53027
upperback 0.926254 -1.46322 -0.20848
thorax 0.353733 -0.725143 -1.06048
lowerneck -5.95698 0.357761 1.29963
upperneck 4.13042 0.227886 2.32247
head 2.32757 0.19869 0.52345
rclavicle -8.48562e-015 -6.75868e-015
rhumerus -34.3477 -14.0744 -81.088
rradius 24.6696
rwrist 3.91037
rhand -19.211 -7.35468
rfingers 7.12502
rthumb 7.10146 -37.2155
lclavicle -8.48562e-015 -6.75868e-015
lhumerus -34.3095 11.1603 80.1712
lradius 23.2566
lwrist 15.0735
lhand -18.1978 12.9892
lfingers 7.12502
lthumb 8.07939 42.8147
rfemur -22.7971 2.44004 20.7592
rtibia 50.4323
rfoot -1.29358 -18.8185
rtoes 0.28181
lfemur 5.51519 11.0635 -18.1611
ltibia 17.3001
lfoot 8.33063 -3.07751
ltoes -38.1301
249
root 47.4797 17.4186 -4.23187 135.95 -86.8398 -136.463
lowerback 1.00725 -1.15101 1.57277
upperback 0.924797 -1.52895 -0.164115
thorax 0.336736 -0.758103 -1.03777
lowerneck -5.93599 0.359625 1.29791
upperneck 4.0736 0.23311 2.31181
head 2.30477 0.200167 0.520156
rclavicle 2.17421e-015 1.19271e-015
rhumerus -34.4322 -14.0651 -80.9929
rradius 24.6803
rwrist 3.8774
rhand -19.1945 -7.3789
rfingers 7.12502
rthumb 7.11742 -37.2392
lclavicle 2.17421e-015 1.19271e-015
lhumerus -34.2631 11.1584 80.2069
lradius 23.2302
lwrist 15.0626
lhand -18.1676 13.004
lfingers 7.12502
lthumb 8.10857 42.8284
rfemur -23.1038 2.73805 20.9318
rtibia 49.5079
rfoot -1.86527 -18.4081
rtoes -1.06242
lfemur 5.83325 11.0028 -18.123
ltibia 16.8558
lfoot 8.46166 -2.94331
ltoes -38.0648
250
root 47.4402 17.4242 -4.22717 133.378 -86.887 -133.846
lowerback 1.03759 -1.19165 1.6043
upperback 0.920682 -1.5825 -0.124209
thorax 0.314237 -0.785076 -1.01336
lowerneck -5.90631 0.359334 1.29351
upperneck 4.00926 0.235245 2.3139
head 2.27794 0.200251 0.521189
rclavicle -2.42207e-014 -1.19271e-015
rhumerus -34.5266 -14.0867 -80.8847
rradius 24.6758
rwrist 3.86403
rhand -19.1815 -7.4036
rfingers 7.12502
rthumb 7.12996 -37.2635
lclavicle -2.42207e-014 -1.19271e-015
lhumerus -34.2145 11.1291 80.2525
lradius 23.2163
lwrist 15.0682
lhand -18.1312 13.0207
lfingers 7.12502
lthumb 8.1437 42.8437
rfemur -23.4008 3.09482 21.0702
rtibia 48.5038
rfoot -2.27449 -18.004
rtoes -2.24073
lfemur 6.19548 10.9467 -18.0909
ltibia 16.3342
lfoot 8.62149 -2.83268
ltoes -38.0085
251
root 47.3999 17.4302 -4.22312 130.918 -86.9283 -131.339
lowerback 1.06815 -1.22416 1.63127
upperback 0.921435 -1.62528 -0.0890602
thorax 0.296914 -0.806621 -0.991383
lowerneck -5.89407 0.35055 1.28754
upperneck 3.955 0.224911 2.32584
head 2.25778 0.194588 0.525284
rclavicle 1.65675e-014 -3.97569e-016
rhumerus -34.6102 -14.1495 -80.7678
rradius 24.6474
rwrist 3.88044
rhand -19.1778 -7.41521
rfingers 7.12502
rthumb 7.1335 -37.275
lclavicle 1.65675e-014 -3.97569e-016
lhumerus -34.1509 11.0731 80.3091
lradius 23.218
lwrist 15.0933
lhand -18.0915 13.0128
lfingers 7.12502
lthumb 8.18204 42.8344
rfemur -23.6934 3.50628 21.1775
rtibia 47.4367
rfoot -2.57062 -17.6087
rtoes -3.3284
lfemur 6.60481 10.888 -18.0629
ltibia 15.7288
lfoot 8.80855 -2.73254
ltoes -37.9463
